<svg xmlns="http://www.w3.org/2000/svg" width="30" height="29" viewBox="0 0 30 29.3"><path d="M19.7 29.2c-0.8 0.1-1-0.3-1-0.7 0-0.5 0-2.1 0-4.1 0-1.4-0.5-2.3-1-2.8 3.3-0.4 6.9-1.6 6.9-7.4 0-1.6-0.6-3-1.5-4 0.2-0.4 0.7-1.9-0.2-4 -1.2-0.4-4.1 1.5-4.1 1.5C17.6 7.4 16.3 7.2 15 7.2s-2.6 0.2-3.7 0.5c0 0-2.9-1.9-4.1-1.5 -0.8 2.1-0.3 3.6-0.1 4C6 11.2 5.4 12.6 5.4 14.2c0 5.7 3.5 7 6.8 7.4 -0.4 0.4-0.8 1-1 2 -0.9 0.4-3 1.1-4.4-1.2 -0.8-1.4-2.3-1.5-2.3-1.5 -1.5 0-0.1 0.9-0.1 0.9 1 0.4 1.7 2.2 1.7 2.2 0.9 2.7 5.1 1.8 5.1 1.8 0 1.3 0 2.4 0 2.8 0 0.4-0.3 0.9-1 0.7C4.3 27.2 0 21.6 0 15 0 6.7 6.7 0 15 0s15 6.7 15 15C30 21.6 25.7 27.2 19.7 29.2z" fill="#2B2B2B"/></svg>