<svg xmlns="http://www.w3.org/2000/svg" width="30" height="30" viewBox="0 0 30 30"><path d="M22.5 30c-1.7 0-3.3-0.6-4.6-1.6 -0.9 0.2-1.9 0.3-2.9 0.3C7.4 28.8 1.3 22.6 1.3 15c0-1 0.1-2 0.3-2.9C0.6 10.8 0 9.2 0 7.5 0 3.4 3.4 0 7.5 0c1.7 0 3.3 0.6 4.6 1.6C13 1.4 14 1.3 15 1.3c7.6 0 13.8 6.2 13.8 13.8 0 1-0.1 2-0.3 2.9C29.4 19.2 30 20.8 30 22.5 30 26.6 26.6 30 22.5 30zM16.8 13.1l-2-0.5c-1.5-0.4-2.6-0.6-2.6-1.7 0-1 1.1-1.5 2.8-1.5 3.1 0 3.1 2.2 5 2.2 1.3 0 2-1 2-2.1 0-2.2-3.7-3.7-7.4-3.7 -3.4 0-7.3 1.5-7.3 5.4 0 3.3 2.2 4.5 5 5.1l2.9 0.7c1.7 0.4 2.8 0.6 2.8 1.9 0 1-1.1 1.8-2.8 1.8 -3.6 0-3.8-3-5.9-3 -1.4 0-2 1-2 2.1 0 2.4 3.7 4.4 8.1 4.4 3.7 0 7.5-1.8 7.5-5.8C22.9 14.9 19.6 13.7 16.8 13.1z" fill="#3F3F3F"/></svg>